<svg xmlns="http://www.w3.org/2000/svg" viewBox="0 0 464 192"><path fill="#455A64" d="M-1 0h466v192H-1z"/><path fill="#57BB8A" d="M254.6 75.2l27.1-33.7c.6-.8 1.9-.8 2.5 0l27.1 33.7c.8 1.1.1 2.6-1.2 2.6h-54.3c-1.3 0-2.1-1.6-1.2-2.6zm41.7 73.6h-26.6c-1.1 0-1.9-.9-1.9-1.9V75.7c0-1.1.9-1.9 1.9-1.9h26.6c1.1 0 1.9.9 1.9 1.9v71.2c0 1.1-.9 1.9-1.9 1.9zm91.2-13.7L410.8 93c.6-1 1.6-1 2.1 0l23.3 42.1c.7 1.3.1 3.3-1.1 3.3h-46.6c-1 0-1.7-2-1-3.3zM423 227h-22.1c-1.1 0-2-.9-2-2v-89.6c0-1.1.9-2 2-2H423c1.1 0 2 .9 2 2V225c0 1.1-.9 2-2 2z"/><path fill="#CCFF90" d="M308.9 49.6l44.5-68.8c1.1-1.6 3-1.6 4.1 0L402 49.6c1.4 2.2.2 5.4-2 5.4h-89c-2.2 0-3.5-3.2-2.1-5.4zM377.5 152h-44.1c-1.6 0-2.9-1.3-2.9-2.9V49.7c0-1.6 1.3-2.9 2.9-2.9h44.1c1.6 0 2.9 1.3 2.9 2.9v99.4c.1 1.6-1.3 2.9-2.9 2.9z"/><path fill="#0F9D58" d="M291.8 134.5l34.1-42.1c.8-1 2.3-1 3.1 0l34.1 42.1c1.1 1.3.1 3.3-1.6 3.3h-68.1c-1.7 0-2.6-2-1.6-3.3zm52.3 91.9h-33.4c-1.3 0-2.4-1.1-2.4-2.4v-88.8c0-1.3 1.1-2.4 2.4-2.4h33.4c1.3 0 2.4 1.1 2.4 2.4V224c.1 1.3-1 2.4-2.4 2.4zM11.9 67.6L46 25.5c.8-1 2.3-1 3.1 0l34.1 42.1c1.1 1.3.1 3.3-1.6 3.3H13.5c-1.7-.1-2.6-2-1.6-3.3zm52.3 91.9H30.9c-1.3 0-2.4-1.1-2.4-2.4V68.2c0-1.3 1.1-2.4 2.4-2.4h33.4c1.3 0 2.4 1.1 2.4 2.4V157c0 1.4-1.1 2.5-2.5 2.5z"/><path fill="#69F0AE" d="M-7.5 156.4l23.3-42.1c.6-1 1.6-1 2.1 0l23.3 42.1c.7 1.3.1 3.3-1.1 3.3H-6.4c-1.2-.1-1.8-2-1.1-3.3zm35.4 91.9H5.8c-1.1 0-2-.9-2-2v-89.6c0-1.1.9-2 2-2h22.1c1.1 0 2 .9 2 2v89.6c0 1.1-.9 2-2 2z"/><path fill="#00796B" d="M174.4 36.3l41.8-63.9c1-1.5 2.8-1.5 3.8 0l41.8 63.9c1.3 2 .2 5-1.9 5h-83.6c-2.1 0-3.2-3-1.9-5zm64.3 107.1h-41.1c-1.6 0-2.9-1.3-2.9-2.9V38.4c0-1.6 1.3-2.9 2.9-2.9h41.1c1.6 0 2.9 1.3 2.9 2.9v102.1c0 1.6-1.3 2.9-2.9 2.9zM431 43l45.3-69.2c1.1-1.6 3.1-1.6 4.2 0L525.7 43c1.4 2.2.2 5.4-2.1 5.4H433c-2.2 0-3.4-3.2-2-5.4zm69.7 116h-44.6c-1.7 0-3.1-1.4-3.1-3.1V45.3c0-1.7 1.4-3.1 3.1-3.1h44.6c1.7 0 3.1 1.4 3.1 3.1v110.6c0 1.7-1.4 3.1-3.1 3.1z"/><path fill="#4DB6AC" d="M97.7 29.5l13.1-23.7c.3-.6.9-.6 1.2 0l13 23.7c.4.7 0 1.8-.6 1.8H98.3c-.7 0-1.1-1.1-.6-1.8zm19.9 51.7h-12.4c-.6 0-1.1-.5-1.1-1.1V29.6c0-.6.5-1.1 1.1-1.1h12.4c.6 0 1.1.5 1.1 1.1V80c0 .6-.5 1.2-1.1 1.2zM-36.2 18.7L-9.1-15c.6-.8 1.9-.8 2.5 0l27.1 33.7c.8 1.1.1 2.6-1.2 2.6H-35c-1.3 0-2.1-1.5-1.2-2.6zM5.5 92.4h-26.6c-1.1 0-1.9-.9-1.9-1.9V19.2c0-1.1.9-1.9 1.9-1.9H5.5c1.1 0 1.9.9 1.9 1.9v71.2c0 1.1-.8 2-1.9 2zm222.4 53.5l13.1-23.7c.3-.6.9-.6 1.2 0l13.1 23.7c.4.7 0 1.8-.6 1.8h-26.2c-.7 0-1-1.1-.6-1.8zm19.9 51.7h-12.4c-.6 0-1.1-.5-1.1-1.1V146c0-.6.5-1.1 1.1-1.1h12.4c.6 0 1.1.5 1.1 1.1v50.4c0 .7-.5 1.2-1.1 1.2z"/><path fill="#B2FF59" d="M84.4 113.3L140 44.5c1.3-1.6 3.8-1.6 5.1 0l55.7 68.8c1.7 2.2.2 5.4-2.6 5.4H86.9c-2.8-.1-4.3-3.3-2.5-5.4zm86.2 102.4h-55.9c-1.8 0-3.3-1.5-3.3-3.3v-98.7c0-1.8 1.5-3.3 3.3-3.3h55.9c1.8 0 3.3 1.5 3.3 3.3v98.7c-.1 1.8-1.5 3.3-3.3 3.3z"/><path fill="#00796B" d="M223.4 225.3l41.8-63.9c1-1.5 2.8-1.5 3.8 0l41.8 63.9c1.3 2 .2 5-1.9 5h-83.6c-2.1 0-3.2-3-1.9-5zm64.3 107.1h-41.1c-1.6 0-2.9-1.3-2.9-2.9V227.4c0-1.6 1.3-2.9 2.9-2.9h41.1c1.6 0 2.9 1.3 2.9 2.9v102.1c0 1.6-1.3 2.9-2.9 2.9z"/></svg>